PathFileType	4	(X/Y/Z)	C:\Users\Basilio\Documents\Thesis Gigler\squatting_fais\c3dfiles\038\SLS_front_pre2\markers_experimental.trc
DataRate	CameraRate	NumFrames	NumMarkers	Units	OrigDataRate	OrigDataStartFrame	OrigNumFrames
200.000000	200.000000	4	61	mm	200.000000	513	1369
Frame#	Time	FHD			LBHD			RBHD			C7			T10			CLAV			LSHO			LUUPA			LMUPA			LDUPA			LLEP			LMEP			LUL			LRFIN			RSHO			RUPA1			RMUPA			RDUPA			RLEP			RMEP			RRAD			RUL			RUFIN			LASI			RASI			USACR			LSACR			RSACR			LTHI1			LTHI2			LTHI3			LTHI4			LLFC			LMFC			LTIB1			LTIB2			LTIB3			LTIB4			LLMAL			LMMAL			LHEE			LMT1			LMT2			LMT5			RTHI			RTHI2			RTHI3			RTHI4			RLFC			RMFC			RTIB1			RTIB2			RTIB3			RTIB4			RLMAL			RMMAL			RHEE			RMT1			RMT2			RMT5			LRAD			
		X1	Y1	Z1	X2	Y2	Z2	X3	Y3	Z3	X4	Y4	Z4	X5	Y5	Z5	X6	Y6	Z6	X7	Y7	Z7	X8	Y8	Z8	X9	Y9	Z9	X10	Y10	Z10	X11	Y11	Z11	X12	Y12	Z12	X13	Y13	Z13	X14	Y14	Z14	X15	Y15	Z15	X16	Y16	Z16	X17	Y17	Z17	X18	Y18	Z18	X19	Y19	Z19	X20	Y20	Z20	X21	Y21	Z21	X22	Y22	Z22	X23	Y23	Z23	X24	Y24	Z24	X25	Y25	Z25	X26	Y26	Z26	X27	Y27	Z27	X28	Y28	Z28	X29	Y29	Z29	X30	Y30	Z30	X31	Y31	Z31	X32	Y32	Z32	X33	Y33	Z33	X34	Y34	Z34	X35	Y35	Z35	X36	Y36	Z36	X37	Y37	Z37	X38	Y38	Z38	X39	Y39	Z39	X40	Y40	Z40	X41	Y41	Z41	X42	Y42	Z42	X43	Y43	Z43	X44	Y44	Z44	X45	Y45	Z45	X46	Y46	Z46	X47	Y47	Z47	X48	Y48	Z48	X49	Y49	Z49	X50	Y50	Z50	X51	Y51	Z51	X52	Y52	Z52	X53	Y53	Z53	X54	Y54	Z54	X55	Y55	Z55	X56	Y56	Z56	X57	Y57	Z57	X58	Y58	Z58	X59	Y59	Z59	X60	Y60	Z60	X61	Y61	Z61	

514	2.565	-285.5197143554688	1755.046752929688	-1062.190307617188	-441.0771484375001	1709.859985351563	-1127.658325195313	-436.2830200195314	1692.33056640625	-983.4464111328127	-487.9795837402345	1516.85791015625	-1063.258666992188	-441.2922668457032	1237.669921875	-1070.856201171875	-343.3931579589844	1518.016357421875	-1069.880249023438	-410.0888061523439	1555.352416992188	-1212.3046875	-244.9286346435547	1494.674438476563	-1345.247802734375	-216.2803497314454	1527.029296875	-1317.169677734375	-175.5879516601563	1500.33251953125	-1352.51220703125	-114.3621368408203	1501.100952148438	-1353.712158203125	-106.6908569335938	1426.99267578125	-1331.666259765625	180.4564361572266	1501.447509765625	-1327.835571289063	245.707748413086	1514.271728515625	-1239.024658203125	-400.8948669433595	1530.051879882813	-922.9470825195315	-241.409652709961	1486.366577148438	-807.500915527344	-205.8042144775391	1502.857788085938	-836.399353027344	-174.251937866211	1480.6630859375	-789.7305297851565	-101.2962036132813	1478.123291015625	-778.948669433594	-94.88071441650392	1403.463989257813	-806.110046386719	178.2736358642578	1479.672241210938	-847.345397949219	185.5105285644532	1488.915649414063	-777.8809814453127	258.3104248046876	1513.197509765625	-847.2614746093752	-241.6685180664063	1064.0576171875	-1166.411743164063	-279.2606201171876	1089.37890625	-919.6840820312502	-431.0097656250001	1101.597290039063	-1063.585815429688	-438.3167419433595	1070.128662109375	-1089.869506835938	-444.3753356933595	1071.7451171875	-1033.494506835938	-258.9694213867188	733.8724365234376	-1199.202270507813	-226.9663391113282	656.1443481445314	-1184.581176757813	-181.0073394775391	663.8604736328126	-1163.72705078125	-254.5931854248047	607.4580688476564	-1165.228271484375	-249.7017822265626	545.5152587890626	-1152.357666015625	-244.2541198730469	545.3906250000001	-1032.91552734375	-235.2952270507813	359.6356506347657	-1064.700317382813	-280.7684936523438	317.6509399414063	-1127.14208984375	-244.6547851562501	310.7561035156251	-1096.65234375	-269.0121154785157	236.8741302490235	-1062.023315429688	-366.6406250000001	113.1027755737305	-1073.75048828125	-327.7608032226563	128.0154724121094	-1002.771789550781	-416.9631958007814	93.28684234619142	-1016.630310058594	-215.9642333984376	44.90629196166993	-1016.710693359375	-208.8000793457032	47.10647583007813	-1067.439697265625	-256.1119079589844	34.9294548034668	-1111.681274414063	-219.9642791748047	838.8787231445315	-849.7412109375002	-159.6555786132813	810.0656738281252	-849.3658447265627	-132.5928344726563	827.3626708984377	-858.0792236328127	-145.6195068359375	724.8454589843751	-860.8992309570315	-64.11677551269533	615.7513427734376	-865.5936279296877	-69.72218322753908	606.8586425781251	-984.8524169921877	58.20221328735353	479.9039001464845	-885.3877563476565	29.28600502014161	374.6217956542969	-840.4102783203127	67.94570159912111	398.9783020019532	-853.1590576171877	101.3190155029297	358.5673217773438	-880.5766601562502	105.6984558105469	221.1595001220704	-840.4017333984377	126.4924545288086	241.2328796386719	-921.8554687500002	85.5771942138672	143.5791168212891	-900.7739868164065	264.8251953125001	268.0185241699219	-894.0482177734377	257.9156188964844	272.7132263183594	-847.6062011718752	235.9647216796876	232.3817443847657	-802.5101318359377	nan	nan	nan	
515	2.57	-285.2908020019532	1754.51708984375	-1062.528076171875	-440.8707885742189	1709.458740234375	-1128.027709960938	-436.123748779297	1692.11669921875	-983.6878051757815	-487.9512939453126	1516.74853515625	-1063.359130859375	-441.8195190429689	1237.317016601563	-1070.843994140625	-343.1886291503907	1517.544067382813	-1070.102416992188	-410.0178527832032	1554.926635742188	-1212.34033203125	-244.8541107177735	1494.335205078125	-1345.283569335938	-216.0489044189454	1526.739990234375	-1317.215209960938	-175.4562072753907	1499.904663085938	-1352.590087890625	-113.8853759765625	1500.318359375	-1353.672729492188	-106.5323867797852	1426.48095703125	-1331.731811523438	180.5648956298828	1500.998413085938	-1327.781616210938	245.7585906982422	1513.962768554688	-1238.977294921875	-400.669158935547	1529.81494140625	-923.1464843750002	-241.2223358154297	1486.152465820313	-807.533386230469	-205.6200714111329	1502.678833007813	-836.5222778320315	-174.0852508544922	1480.4736328125	-789.7868652343752	-101.0839309692383	1477.92724609375	-779.076843261719	-94.69112396240236	1403.282836914063	-806.1350097656252	178.4119873046875	1479.410888671875	-847.4636230468752	185.7506408691407	1488.651000976563	-777.9912109375002	258.4472351074219	1512.934326171875	-847.4104614257815	-242.409408569336	1063.450927734375	-1166.6201171875	-279.5543212890626	1089.049560546875	-919.8015747070315	-431.5155639648439	1100.630126953125	-1063.274780273438	-439.021209716797	1069.350341796875	-1089.658325195313	-444.8621826171876	1071.259033203125	-1033.243286132813	-258.5737609863282	733.4499511718751	-1199.085571289063	-226.2632751464844	655.7330932617189	-1184.56396484375	-180.2857971191407	663.5616455078126	-1163.656616210938	-253.6413726806641	606.9353027343751	-1165.111206054688	-248.5547637939454	545.1573486328126	-1152.309448242188	-242.7414703369141	545.0390625000001	-1032.974853515625	-234.5177307128907	359.3612670898438	-1064.583618164063	-280.1400451660157	317.4537048339844	-1126.9619140625	-244.0796203613282	310.4305419921876	-1096.525146484375	-268.4008789062501	236.5680236816407	-1061.963989257813	-366.5139770507813	113.0986709594727	-1073.58203125	-327.6959838867188	128.0105895996094	-1002.6103515625	-416.9338378906251	93.3036346435547	-1016.629699707031	-215.9769592285157	44.86918640136719	-1016.654968261719	-208.7887115478516	47.1169776916504	-1067.389770507813	-256.1153869628907	35.09449768066407	-1111.600219726563	-220.5233764648438	838.5561523437502	-850.1143188476565	-159.6030578613282	810.152770996094	-849.2077636718752	-132.5630340576172	827.4733886718752	-858.050720214844	-145.493881225586	724.9204101562501	-860.7281494140627	-63.81673431396486	616.0966186523439	-865.442077636719	-69.61936950683595	606.7992553710939	-984.647399902344	58.69616699218751	480.321990966797	-885.1799316406252	29.92389678955079	375.0019531250001	-839.910827636719	68.75785064697267	399.4313354492189	-852.8489990234377	101.92724609375	358.9326171875001	-880.3530273437502	106.2228088378907	221.3946838378907	-840.1248779296877	127.1218490600586	241.7269592285157	-921.4424438476565	86.75891113281251	143.70068359375	-900.8269653320315	265.5118408203126	268.5084838867188	-893.7967529296877	259.0018920898438	273.4669494628907	-847.3044433593752	236.9665832519532	233.0614776611329	-802.2119140625002	nan	nan	nan	
516	2.575	-285.1354370117188	1754.210815429688	-1062.91650390625	-440.7444763183595	1709.076538085938	-1128.303344726563	-435.9419250488282	1691.844360351563	-983.8793945312502	-487.8201293945314	1516.442016601563	-1063.400512695313	-442.2761230468751	1236.986450195313	-1070.837280273438	-342.8746643066407	1516.956176757813	-1070.355590820313	-409.9475097656251	1554.529663085938	-1212.440673828125	-244.8188018798829	1493.870361328125	-1345.339721679688	-215.9796295166016	1526.190307617188	-1317.339111328125	-175.4521484375	1499.59521484375	-1352.4384765625	-114.0630416870117	1500.130737304688	-1353.353881835938	-106.4247360229492	1426.094970703125	-1331.642211914063	180.6679077148438	1500.633178710938	-1327.761108398438	245.8041076660157	1513.804809570313	-1238.925537109375	-400.4176330566407	1529.50732421875	-923.2837524414065	-241.0619659423829	1485.934814453125	-807.6253051757815	-205.4489898681641	1502.416137695313	-836.572204589844	-173.8521423339844	1480.2373046875	-789.971374511719	-100.8613204956055	1477.705932617188	-779.1693115234377	-94.44930267333986	1403.108764648438	-806.1990356445315	178.5357818603516	1478.866943359375	-847.4736938476565	186.0050048828125	1488.347045898438	-778.0715942382815	258.6767883300782	1512.587646484375	-847.5931396484377	-243.2133483886719	1062.53125	-1166.58837890625	-279.9024658203126	1088.735473632813	-919.949157714844	-432.0576782226564	1100.107543945313	-1063.082641601563	-440.2634277343751	1068.64404296875	-1089.676391601563	-445.4267883300782	1070.776977539063	-1033.16259765625	-258.0624694824219	733.2609252929689	-1198.866943359375	-225.4596405029297	655.5194091796876	-1184.552612304688	-179.5695343017578	663.3800659179689	-1163.546997070313	-252.5915527343751	606.4116821289064	-1165.080688476563	-247.3356475830079	544.7689208984376	-1152.286254882813	-241.8045654296876	544.8306884765626	-1033.013061523438	-233.4469299316407	358.8091735839844	-1064.6943359375	-279.2290649414063	317.1324462890626	-1126.819946289063	-243.3108062744141	309.8677978515626	-1096.164672851563	-267.9732055664063	236.4004821777344	-1061.94873046875	-366.4432373046876	113.2015457153321	-1073.532470703125	-327.6072082519532	127.9518585205078	-1002.43359375	-416.9825439453126	93.33222961425783	-1016.520629882813	-215.9935760498047	44.84262466430665	-1016.592834472656	-208.7738952636719	47.17243576049805	-1067.364990234375	-256.0392456054688	35.10670471191407	-1111.541625976563	-219.9746704101563	838.874694824219	-849.476257324219	-159.5517883300782	810.2371215820315	-849.1482543945315	-132.5063781738282	827.6417236328127	-857.999206542969	-145.1051635742188	725.2299804687501	-860.696472167969	-63.4641571044922	616.3474731445314	-865.1834716796877	-69.36815643310548	606.8344726562501	-984.4792480468752	59.24777603149415	480.7761535644532	-884.9556274414065	30.74307441711426	375.4304504394532	-839.5458984375002	69.42569732666017	399.8906250000001	-852.5255126953127	102.3779907226563	359.6086120605469	-879.9932861328127	107.4341125488282	222.2222290039063	-839.4422607421877	128.0299835205078	242.0500640869141	-921.0601196289065	87.90426635742189	144.1002044677735	-900.0451660156252	266.5274047851563	269.0993347167969	-893.5445556640627	259.6343688964844	274.1515808105469	-847.1827392578127	237.8428039550782	233.7337646484376	-802.0344848632815	nan	nan	nan	
517	2.58	-284.7915344238282	1753.93017578125	-1063.487670898438	-440.5796508789064	1708.753173828125	-1128.57421875	-435.7371826171876	1691.501953125	-984.1243896484377	-487.6342163085939	1516.172485351563	-1063.52001953125	-442.7819213867189	1236.66943359375	-1070.828125	-342.7270507812501	1516.5654296875	-1070.608276367188	-409.9169006347657	1554.155883789063	-1212.605346679688	-244.8027801513672	1493.381225585938	-1345.328491210938	-215.9566345214844	1525.745361328125	-1317.38671875	-175.3662261962891	1499.19580078125	-1352.409790039063	-113.9501953125	1499.876831054688	-1353.362670898438	-106.4418106079102	1425.609985351563	-1331.630493164063	180.7375946044922	1500.198486328125	-1327.671264648438	245.8647003173829	1513.520751953125	-1238.849731445313	-400.1664428710939	1529.272827148438	-923.5421142578127	-240.9224853515626	1485.59912109375	-807.7215576171877	-205.2384033203126	1502.173217773438	-836.6817016601565	-173.4536743164063	1479.901733398438	-790.0504150390627	-100.6484909057617	1477.425170898438	-779.3303222656252	-94.25182342529298	1402.864135742188	-806.2545166015627	178.8019256591797	1478.442626953125	-847.5305175781252	186.1445007324219	1487.998046875	-778.1184692382815	259.0483703613282	1512.327392578125	-847.816589355469	-244.1046752929688	1061.430786132813	-1166.74755859375	-280.1773071289063	1088.488403320313	-920.1387329101565	-432.6014404296876	1099.597534179688	-1062.976806640625	-440.9778137207032	1067.98095703125	-1089.52734375	-446.0973205566407	1070.281860351563	-1033.036376953125	-257.4776916503907	732.3313598632814	-1198.75048828125	-224.5006256103516	655.0886840820314	-1184.367919921875	-178.8122253417969	663.2546386718751	-1163.270629882813	-251.5004425048829	605.8482055664064	-1164.971313476563	-245.8326416015626	544.2683105468751	-1151.957153320313	-240.3634948730469	544.4812622070314	-1033.194213867188	-232.6945190429688	358.6043701171876	-1064.3291015625	-278.7936706542969	316.4987182617188	-1126.767456054688	-242.5734100341797	309.4632263183594	-1095.808471679688	-267.4986572265626	236.2387390136719	-1061.522705078125	-366.3365783691407	113.2720260620117	-1073.397583007813	-327.3283691406251	128.1807556152344	-1002.181945800781	-416.9729614257814	93.2881317138672	-1016.422668457031	-216.0340270996094	44.81397247314454	-1016.575134277344	-209.3759155273438	47.11912918090821	-1067.58984375	-256.0317687988282	35.20140838623048	-1111.538330078125	-220.497299194336	838.526794433594	-849.818054199219	-159.4194488525391	810.3403930664065	-849.1397094726565	-132.5067291259766	827.7969360351565	-858.0195922851565	-144.8799133300782	725.3956909179689	-860.4514160156252	-63.11512756347658	616.5762939453126	-865.053894042969	-69.22250366210939	606.8441162109376	-984.2651367187502	59.67113876342775	480.6937866210939	-884.9632568359377	31.57389068603516	375.9125976562501	-839.2728271484377	70.11256408691408	400.3719482421876	-852.2356567382815	103.0513992309571	359.8120117187501	-879.7234497070315	108.434196472168	222.7216339111329	-839.1273193359377	128.8737335205078	242.5718078613282	-920.6728515625002	87.89002990722658	144.592269897461	-898.9614868164065	267.4006347656251	269.8504638671876	-893.363464355469	260.6822509765626	275.0214538574219	-846.8986816406252	238.6421508789063	234.6839447021485	-801.6287231445315	nan	nan	nan	
